<svg preserveAspectRatio="none" overflow="visible" style="display: block;" width="34.4175" height="37.2895" viewBox="0 0 34.4175 37.2895" fill="none" xmlns="http://www.w3.org/2000/svg">
<g id="Layer 1">
<path id="Vector" d="M30.5634 25.9546C28.3326 24.0275 26.0682 22.8612 23.8645 24.785L22.5489 25.948C21.586 26.792 19.7959 30.736 12.8755 22.6968C5.95627 14.6686 10.0737 13.4179 11.0377 12.5816L12.361 11.4175C14.5527 9.48936 13.7255 7.0614 12.145 4.56328L11.1908 3.0495C9.60262 0.555773 7.87334 -1.08077 5.67619 0.844059L4.48861 1.89197C3.51704 2.60666 0.802088 4.92939 0.14316 9.34138C-0.649289 14.6358 1.85073 20.6985 7.57916 27.35C13.3011 34.0047 18.9025 37.3479 24.2087 37.2887C28.6181 37.2405 31.2821 34.8509 32.1147 33.9827L33.3066 32.9337C35.4983 31.01 34.1371 29.0512 31.9041 27.1198L30.5624 25.9546H30.5634Z" fill="white"/>
</g>
</svg>
